<?xml version="1.0" encoding="iso-8859-1"?>
<!-- Generator: Adobe Illustrator 19.0.0, SVG Export Plug-In . SVG Version: 6.00 Build 0)  -->
<svg version="1.1" id="Layer_1" xmlns="http://www.w3.org/2000/svg" xmlns:xlink="http://www.w3.org/1999/xlink" x="0px" y="0px"
	 viewBox="0 0 512 512" style="enable-background:new 0 0 512 512;" xml:space="preserve">
<g>
	<g>
		<path d="M220.452,274.116l-0.524,1.4c-0.91,2.428-2.162,4.501-3.719,6.158c-1.583,1.683-3.387,3.074-5.364,4.138
			c-1.996,1.075-4.096,1.853-6.244,2.314c-6.279,1.346-12.199,0.739-16.95-1.678c-3.128-1.588-5.804-3.745-7.953-6.409
			c-2.168-2.682-3.842-5.824-4.979-9.341c-1.145-3.532-1.726-7.279-1.726-11.14c0-3.44,0.503-6.958,1.495-10.456
			c0.98-3.46,2.499-6.604,4.513-9.341c1.994-2.707,4.586-4.936,7.706-6.622c4.583-2.48,10.732-3.187,17.683-1.899
			c2.195,0.41,4.352,1.136,6.407,2.162c2.029,1.017,3.909,2.409,5.588,4.137c1.658,1.711,3.015,3.917,4.032,6.56l0.578,1.502
			l26.392-18.775l-0.512-0.967c-4.1-7.754-10.41-14.069-18.755-18.768c-8.326-4.684-18.281-7.059-29.59-7.059
			c-9.445,0-17.977,1.732-25.363,5.147c-7.363,3.408-13.72,7.926-18.893,13.428c-5.174,5.505-9.165,11.812-11.862,18.747
			c-2.695,6.924-4.061,14.069-4.061,21.232c0,7.488,1.45,14.96,4.307,22.212c2.856,7.254,6.951,13.828,12.172,19.541
			c5.221,5.719,11.521,10.375,18.725,13.839c7.223,3.474,15.298,5.236,23.999,5.236c4.939,0,10.086-0.612,15.299-1.818
			c5.21-1.206,10.166-2.988,14.731-5.297c4.582-2.319,8.724-5.23,12.312-8.652c3.625-3.459,6.374-7.427,8.167-11.794l0.408-0.995
			L220.452,274.116z"/>
	</g>
</g>
<g>
	<g>
		<path d="M371.376,253.989v-23.602h-20.265l7.468-29.708h-27.094l-7.307,29.708h-7.159l7.468-29.708h-27.095l-7.305,29.708h-24.134
			v23.602h18.35l-2.672,11.626h-23.957v25.225h17.836l-6.818,27.598h27.092l6.656-27.598h7.162l-6.818,27.598h27.092l6.656-27.598
			h26.564v-25.225h-20.46l2.672-11.626H371.376z M315.722,265.616h-7.178l2.672-11.626h7.178L315.722,265.616z"/>
	</g>
</g>
<g>
	<g>
		<path d="M256,0C114.84,0,0,114.84,0,256s114.84,256,256,256s256-114.84,256-256S397.16,0,256,0z M256,474.537
			c-120.501,0-218.537-98.036-218.537-218.537S135.499,37.463,256,37.463S474.537,135.499,474.537,256S376.501,474.537,256,474.537z
			"/>
	</g>
</g>
<g>
</g>
<g>
</g>
<g>
</g>
<g>
</g>
<g>
</g>
<g>
</g>
<g>
</g>
<g>
</g>
<g>
</g>
<g>
</g>
<g>
</g>
<g>
</g>
<g>
</g>
<g>
</g>
<g>
</g>
</svg>
