<?xml version="1.0"?>
<svg xmlns="http://www.w3.org/2000/svg" viewBox="0 0 24 24">
    <path style="text-indent:0;text-align:start;line-height:normal;text-transform:none;block-progression:tb;-inkscape-font-specification:Bitstream Vera Sans" d="M 4 3 C 2.9069372 3 2 3.9069372 2 5 L 2 19 C 2 20.093063 2.9069372 21 4 21 L 20 21 C 21.093063 21 22 20.093063 22 19 L 22 5 C 22 3.9069372 21.093063 3 20 3 L 4 3 z M 4 7 L 20 7 L 20 19 L 4 19 L 4 7 z M 6 9 L 8.5625 12 L 6 15 L 8.53125 15 L 11.0625 12 L 8.53125 9 L 6 9 z M 12 13 L 12 15 L 18 15 L 18 13 L 12 13 z" overflow="visible" font-family="Bitstream Vera Sans"/>
</svg>
